<mxfile host="app.diagrams.net" modified="2021-12-15T08:28:45.314Z" agent="5.0 (Windows NT 10.0; Win64; x64) AppleWebKit/537.36 (KHTML, like Gecko) Chrome/95.0.4638.69 Safari/537.36" etag="Ztrvt0cTg62RY4G7wcmF" version="15.9.6" type="github" pages="2">
  <diagram name="Page-1" id="e7e014a7-5840-1c2e-5031-d8a46d1fe8dd">
    <mxGraphModel dx="868" dy="394" grid="1" gridSize="10" guides="1" tooltips="1" connect="1" arrows="1" fold="1" page="1" pageScale="1" pageWidth="1169" pageHeight="826" background="none" math="0" shadow="0">
      <root>
        <mxCell id="0" />
        <mxCell id="1" parent="0" />
        <mxCell id="2" value="Thread 1" style="swimlane;whiteSpace=wrap" parent="1" vertex="1">
          <mxGeometry x="164.5" y="128" width="280" height="570" as="geometry" />
        </mxCell>
        <mxCell id="5" value="" style="ellipse;shape=startState;fillColor=#000000;strokeColor=#ff0000;" parent="2" vertex="1">
          <mxGeometry x="100" y="40" width="30" height="30" as="geometry" />
        </mxCell>
        <mxCell id="6" value="" style="edgeStyle=elbowEdgeStyle;elbow=horizontal;verticalAlign=bottom;endArrow=open;endSize=8;strokeColor=#FF0000;endFill=1;rounded=0" parent="2" source="5" target="7" edge="1">
          <mxGeometry x="100" y="40" as="geometry">
            <mxPoint x="115" y="110" as="targetPoint" />
          </mxGeometry>
        </mxCell>
        <mxCell id="7" value="idle" style="" parent="2" vertex="1">
          <mxGeometry x="60" y="110" width="110" height="50" as="geometry" />
        </mxCell>
        <mxCell id="8" value="user action" style="" parent="2" vertex="1">
          <mxGeometry x="60" y="220" width="110" height="50" as="geometry" />
        </mxCell>
        <mxCell id="9" value="" style="endArrow=open;strokeColor=#FF0000;endFill=1;rounded=0" parent="2" source="7" target="8" edge="1">
          <mxGeometry relative="1" as="geometry" />
        </mxCell>
        <mxCell id="10" value="post command" style="" parent="2" vertex="1">
          <mxGeometry x="60" y="412" width="110" height="50" as="geometry" />
        </mxCell>
        <mxCell id="11" value="" style="endArrow=open;strokeColor=#FF0000;endFill=1;rounded=0;exitX=0;exitY=0;exitDx=0;exitDy=0;" parent="2" source="wqqaSzbxY1rW3Zw78La_-42" target="10" edge="1">
          <mxGeometry relative="1" as="geometry">
            <mxPoint x="115.5" y="337" as="sourcePoint" />
            <mxPoint x="115.5" y="422" as="targetPoint" />
          </mxGeometry>
        </mxCell>
        <mxCell id="12" value="" style="edgeStyle=elbowEdgeStyle;elbow=horizontal;strokeColor=#FF0000;endArrow=open;endFill=1;rounded=0" parent="2" source="10" target="7" edge="1">
          <mxGeometry width="100" height="100" relative="1" as="geometry">
            <mxPoint x="160" y="290" as="sourcePoint" />
            <mxPoint x="260" y="190" as="targetPoint" />
            <Array as="points">
              <mxPoint x="30" y="250" />
            </Array>
          </mxGeometry>
        </mxCell>
        <mxCell id="wqqaSzbxY1rW3Zw78La_-42" value="user action" style="" parent="2" vertex="1">
          <mxGeometry x="60" y="312" width="110" height="50" as="geometry" />
        </mxCell>
        <mxCell id="wqqaSzbxY1rW3Zw78La_-45" value="" style="endArrow=open;strokeColor=#FF0000;endFill=1;rounded=0;" parent="2" target="wqqaSzbxY1rW3Zw78La_-42" edge="1">
          <mxGeometry relative="1" as="geometry">
            <mxPoint x="114.5" y="242" as="sourcePoint" />
            <mxPoint x="114.5" y="312" as="targetPoint" />
          </mxGeometry>
        </mxCell>
        <mxCell id="3" value="Thread 2" style="swimlane;whiteSpace=wrap" parent="1" vertex="1">
          <mxGeometry x="444.5" y="128" width="280" height="570" as="geometry">
            <mxRectangle x="444.5" y="128" width="80" height="23" as="alternateBounds" />
          </mxGeometry>
        </mxCell>
        <mxCell id="13" value="" style="ellipse;shape=startState;fillColor=#000000;strokeColor=#ff0000;" parent="3" vertex="1">
          <mxGeometry x="60" y="40" width="30" height="30" as="geometry" />
        </mxCell>
        <mxCell id="14" value="" style="edgeStyle=elbowEdgeStyle;elbow=horizontal;verticalAlign=bottom;endArrow=open;endSize=8;strokeColor=#FF0000;endFill=1;rounded=0" parent="3" source="13" target="15" edge="1">
          <mxGeometry x="40" y="20" as="geometry">
            <mxPoint x="55" y="90" as="targetPoint" />
          </mxGeometry>
        </mxCell>
        <mxCell id="15" value="idle" style="" parent="3" vertex="1">
          <mxGeometry x="20" y="110" width="110" height="50" as="geometry" />
        </mxCell>
        <mxCell id="16" value="check for &#xa;new commands" style="" parent="3" vertex="1">
          <mxGeometry x="20" y="220" width="110" height="50" as="geometry" />
        </mxCell>
        <mxCell id="17" value="" style="endArrow=open;strokeColor=#FF0000;endFill=1;rounded=0" parent="3" source="15" target="16" edge="1">
          <mxGeometry relative="1" as="geometry" />
        </mxCell>
        <mxCell id="18" value="command queue" style="" parent="3" vertex="1">
          <mxGeometry x="20" y="325" width="110" height="50" as="geometry" />
        </mxCell>
        <mxCell id="19" value="" style="endArrow=open;strokeColor=#FF0000;endFill=1;rounded=0" parent="3" source="16" target="18" edge="1">
          <mxGeometry relative="1" as="geometry" />
        </mxCell>
        <mxCell id="21" value="queue empty" style="rhombus;fillColor=#ffffc0;strokeColor=#ff0000;" parent="3" vertex="1">
          <mxGeometry x="150" y="225" width="80" height="40" as="geometry" />
        </mxCell>
        <mxCell id="22" value="yes" style="edgeStyle=elbowEdgeStyle;elbow=horizontal;align=left;verticalAlign=bottom;endArrow=open;endSize=8;strokeColor=#FF0000;exitX=0.5;exitY=0;endFill=1;rounded=0;entryX=0.75;entryY=0.5;entryPerimeter=0" parent="3" source="21" target="25" edge="1">
          <mxGeometry x="-1" relative="1" as="geometry">
            <mxPoint x="160" y="150" as="targetPoint" />
            <Array as="points">
              <mxPoint x="190" y="180" />
            </Array>
          </mxGeometry>
        </mxCell>
        <mxCell id="23" value="no" style="edgeStyle=elbowEdgeStyle;elbow=horizontal;align=left;verticalAlign=top;endArrow=open;endSize=8;strokeColor=#FF0000;endFill=1;rounded=0" parent="3" source="21" target="30" edge="1">
          <mxGeometry x="-1" relative="1" as="geometry">
            <mxPoint x="190" y="305" as="targetPoint" />
          </mxGeometry>
        </mxCell>
        <mxCell id="24" value="" style="endArrow=open;strokeColor=#FF0000;endFill=1;rounded=0" parent="3" source="16" target="21" edge="1">
          <mxGeometry relative="1" as="geometry" />
        </mxCell>
        <mxCell id="25" value="" style="shape=line;strokeWidth=6;strokeColor=#ff0000;rotation=90" parent="3" vertex="1">
          <mxGeometry x="130" y="127.5" width="50" height="15" as="geometry" />
        </mxCell>
        <mxCell id="26" value="" style="edgeStyle=elbowEdgeStyle;elbow=horizontal;verticalAlign=bottom;endArrow=open;endSize=8;strokeColor=#FF0000;endFill=1;rounded=0" parent="3" source="25" target="15" edge="1">
          <mxGeometry x="130" y="90" as="geometry">
            <mxPoint x="230" y="140" as="targetPoint" />
          </mxGeometry>
        </mxCell>
        <mxCell id="30" value="dispatch&#xa;command&#xa;worker thread" style="" parent="3" vertex="1">
          <mxGeometry x="140" y="325" width="110" height="50" as="geometry" />
        </mxCell>
        <mxCell id="31" value="critical&#xa;section" style="shape=note;whiteSpace=wrap;size=17" parent="3" vertex="1">
          <mxGeometry x="105" y="490" width="100" height="50" as="geometry" />
        </mxCell>
        <mxCell id="32" value="" style="endArrow=none;strokeColor=#FF0000;endFill=0;rounded=0;dashed=1" parent="3" source="18" target="31" edge="1">
          <mxGeometry relative="1" as="geometry" />
        </mxCell>
        <mxCell id="34" value="" style="whiteSpace=wrap;strokeColor=#FF0000;fillColor=#FF0000" parent="3" vertex="1">
          <mxGeometry x="245" y="395" width="5" height="45" as="geometry" />
        </mxCell>
        <mxCell id="41" value="" style="edgeStyle=elbowEdgeStyle;elbow=horizontal;entryX=0;entryY=0.5;strokeColor=#FF0000;endArrow=open;endFill=1;rounded=0" parent="3" source="30" target="34" edge="1">
          <mxGeometry width="100" height="100" relative="1" as="geometry">
            <mxPoint x="60" y="480" as="sourcePoint" />
            <mxPoint x="160" y="380" as="targetPoint" />
            <Array as="points">
              <mxPoint x="195" y="400" />
            </Array>
          </mxGeometry>
        </mxCell>
        <mxCell id="4" value="Thread 3" style="swimlane;whiteSpace=wrap" parent="1" vertex="1">
          <mxGeometry x="724.5" y="128" width="280" height="570" as="geometry" />
        </mxCell>
        <mxCell id="33" value="process&#xa;command" style="" parent="4" vertex="1">
          <mxGeometry x="90" y="405" width="110" height="50" as="geometry" />
        </mxCell>
        <mxCell id="35" value="" style="edgeStyle=elbowEdgeStyle;elbow=horizontal;strokeColor=#FF0000;endArrow=open;endFill=1;rounded=0;entryX=0.25;entryY=0.5;entryPerimeter=0" parent="4" target="25" edge="1">
          <mxGeometry width="100" height="100" relative="1" as="geometry">
            <mxPoint x="-30" y="410" as="sourcePoint" />
            <mxPoint x="-120" y="120" as="targetPoint" />
            <Array as="points">
              <mxPoint x="-10" y="135" />
            </Array>
          </mxGeometry>
        </mxCell>
        <mxCell id="37" value="" style="edgeStyle=none;strokeColor=#FF0000;endArrow=open;endFill=1;rounded=0" parent="4" target="33" edge="1">
          <mxGeometry width="100" height="100" relative="1" as="geometry">
            <mxPoint x="-30" y="429.5" as="sourcePoint" />
            <mxPoint x="90" y="429.5" as="targetPoint" />
          </mxGeometry>
        </mxCell>
        <mxCell id="38" value="" style="ellipse;shape=endState;fillColor=#000000;strokeColor=#ff0000" parent="4" vertex="1">
          <mxGeometry x="130" y="500" width="30" height="30" as="geometry" />
        </mxCell>
        <mxCell id="39" value="" style="endArrow=open;strokeColor=#FF0000;endFill=1;rounded=0" parent="4" source="33" target="38" edge="1">
          <mxGeometry relative="1" as="geometry" />
        </mxCell>
        <mxCell id="20" value="" style="endArrow=open;strokeColor=#FF0000;endFill=1;rounded=0" parent="1" source="10" target="18" edge="1">
          <mxGeometry relative="1" as="geometry" />
        </mxCell>
        <mxCell id="wqqaSzbxY1rW3Zw78La_-41" value="手术流程管理" style="rounded=1;whiteSpace=wrap;html=1;fillColor=#fff2cc;strokeColor=#d6b656;fontColor=#7A5E87;fontStyle=1;fontSize=16;" parent="1" vertex="1">
          <mxGeometry x="30" y="20" width="120" height="60" as="geometry" />
        </mxCell>
      </root>
    </mxGraphModel>
  </diagram>
  <diagram id="8ZNkPNpzcMx2T0sxvTHA" name="Page-2">
    <mxGraphModel dx="723" dy="328" grid="1" gridSize="10" guides="1" tooltips="1" connect="1" arrows="1" fold="1" page="1" pageScale="1" pageWidth="827" pageHeight="1169" math="0" shadow="0">
      <root>
        <mxCell id="Koh-GuARSo2pHLwbyBPv-0" />
        <mxCell id="Koh-GuARSo2pHLwbyBPv-1" parent="Koh-GuARSo2pHLwbyBPv-0" />
        <mxCell id="STwrOhRklooQAh6NSAL1-0" value="inPut" style="swimlane;whiteSpace=wrap" vertex="1" parent="Koh-GuARSo2pHLwbyBPv-1">
          <mxGeometry x="20" y="128" width="1190" height="862" as="geometry" />
        </mxCell>
        <mxCell id="PTWqVlbE14Y938z7VgFS-57" value="" style="rounded=1;whiteSpace=wrap;html=1;fontSize=10;fillColor=#fad9d5;strokeColor=#ae4132;opacity=50;" vertex="1" parent="STwrOhRklooQAh6NSAL1-0">
          <mxGeometry y="22" width="1190" height="388" as="geometry" />
        </mxCell>
        <mxCell id="STwrOhRklooQAh6NSAL1-39" value="授权知情同意书" style="shape=document;whiteSpace=wrap;html=1;boundedLbl=1;" vertex="1" parent="STwrOhRklooQAh6NSAL1-0">
          <mxGeometry x="15.5" y="52" width="104.5" height="62" as="geometry" />
        </mxCell>
        <mxCell id="STwrOhRklooQAh6NSAL1-40" value="手术知情同意书" style="shape=document;whiteSpace=wrap;html=1;boundedLbl=1;" vertex="1" parent="STwrOhRklooQAh6NSAL1-0">
          <mxGeometry x="120" y="52" width="104.5" height="62" as="geometry" />
        </mxCell>
        <mxCell id="STwrOhRklooQAh6NSAL1-41" value="医疗材料收费知情同意书" style="shape=document;whiteSpace=wrap;html=1;boundedLbl=1;" vertex="1" parent="STwrOhRklooQAh6NSAL1-0">
          <mxGeometry x="15.5" y="114" width="104.5" height="62" as="geometry" />
        </mxCell>
        <mxCell id="STwrOhRklooQAh6NSAL1-42" value="特殊用药知情同意书" style="shape=document;whiteSpace=wrap;html=1;boundedLbl=1;fillColor=#fad7ac;strokeColor=#b46504;" vertex="1" parent="STwrOhRklooQAh6NSAL1-0">
          <mxGeometry x="120" y="114" width="104.5" height="62" as="geometry" />
        </mxCell>
        <mxCell id="STwrOhRklooQAh6NSAL1-43" value="手术安全核查表" style="shape=document;whiteSpace=wrap;html=1;boundedLbl=1;" vertex="1" parent="STwrOhRklooQAh6NSAL1-0">
          <mxGeometry x="15.5" y="176" width="104.5" height="62" as="geometry" />
        </mxCell>
        <mxCell id="STwrOhRklooQAh6NSAL1-44" value="手术风险评估表" style="shape=document;whiteSpace=wrap;html=1;boundedLbl=1;" vertex="1" parent="STwrOhRklooQAh6NSAL1-0">
          <mxGeometry x="120" y="176" width="104.5" height="62" as="geometry" />
        </mxCell>
        <mxCell id="STwrOhRklooQAh6NSAL1-45" value="新冠病毒筛查表" style="shape=document;whiteSpace=wrap;html=1;boundedLbl=1;" vertex="1" parent="STwrOhRklooQAh6NSAL1-0">
          <mxGeometry x="15.5" y="254" width="104.5" height="62" as="geometry" />
        </mxCell>
        <mxCell id="STwrOhRklooQAh6NSAL1-46" value="术前小结" style="shape=document;whiteSpace=wrap;html=1;boundedLbl=1;" vertex="1" parent="STwrOhRklooQAh6NSAL1-0">
          <mxGeometry x="15.5" y="332" width="104.5" height="62" as="geometry" />
        </mxCell>
        <mxCell id="PTWqVlbE14Y938z7VgFS-0" value="手术标记" style="ellipse;whiteSpace=wrap;html=1;fillColor=#fad7ac;strokeColor=#b46504;" vertex="1" parent="STwrOhRklooQAh6NSAL1-0">
          <mxGeometry x="150" y="302" width="63.33" height="68" as="geometry" />
        </mxCell>
        <mxCell id="PTWqVlbE14Y938z7VgFS-1" value="授权知情同意书" style="shape=document;whiteSpace=wrap;html=1;boundedLbl=1;" vertex="1" parent="STwrOhRklooQAh6NSAL1-0">
          <mxGeometry x="15.5" y="52" width="104.5" height="62" as="geometry" />
        </mxCell>
        <mxCell id="PTWqVlbE14Y938z7VgFS-2" value="手术知情同意书" style="shape=document;whiteSpace=wrap;html=1;boundedLbl=1;" vertex="1" parent="STwrOhRklooQAh6NSAL1-0">
          <mxGeometry x="120" y="52" width="104.5" height="62" as="geometry" />
        </mxCell>
        <mxCell id="PTWqVlbE14Y938z7VgFS-3" value="授权知情同意书" style="shape=document;whiteSpace=wrap;html=1;boundedLbl=1;" vertex="1" parent="STwrOhRklooQAh6NSAL1-0">
          <mxGeometry x="15.5" y="52" width="104.5" height="62" as="geometry" />
        </mxCell>
        <mxCell id="PTWqVlbE14Y938z7VgFS-4" value="手术知情同意书" style="shape=document;whiteSpace=wrap;html=1;boundedLbl=1;" vertex="1" parent="STwrOhRklooQAh6NSAL1-0">
          <mxGeometry x="120" y="52" width="104.5" height="62" as="geometry" />
        </mxCell>
        <mxCell id="PTWqVlbE14Y938z7VgFS-5" value="医疗材料收费知情同意书" style="shape=document;whiteSpace=wrap;html=1;boundedLbl=1;" vertex="1" parent="STwrOhRklooQAh6NSAL1-0">
          <mxGeometry x="15.5" y="114" width="104.5" height="62" as="geometry" />
        </mxCell>
        <mxCell id="PTWqVlbE14Y938z7VgFS-6" value="授权知情同意书" style="shape=document;whiteSpace=wrap;html=1;boundedLbl=1;" vertex="1" parent="STwrOhRklooQAh6NSAL1-0">
          <mxGeometry x="15.5" y="52" width="104.5" height="62" as="geometry" />
        </mxCell>
        <mxCell id="PTWqVlbE14Y938z7VgFS-7" value="手术知情同意书" style="shape=document;whiteSpace=wrap;html=1;boundedLbl=1;" vertex="1" parent="STwrOhRklooQAh6NSAL1-0">
          <mxGeometry x="120" y="52" width="104.5" height="62" as="geometry" />
        </mxCell>
        <mxCell id="PTWqVlbE14Y938z7VgFS-8" value="医疗材料收费知情同意书" style="shape=document;whiteSpace=wrap;html=1;boundedLbl=1;" vertex="1" parent="STwrOhRklooQAh6NSAL1-0">
          <mxGeometry x="15.5" y="114" width="104.5" height="62" as="geometry" />
        </mxCell>
        <mxCell id="PTWqVlbE14Y938z7VgFS-9" value="手术风险评估表" style="shape=document;whiteSpace=wrap;html=1;boundedLbl=1;" vertex="1" parent="STwrOhRklooQAh6NSAL1-0">
          <mxGeometry x="120" y="176" width="104.5" height="62" as="geometry" />
        </mxCell>
        <mxCell id="PTWqVlbE14Y938z7VgFS-10" value="授权知情同意书" style="shape=document;whiteSpace=wrap;html=1;boundedLbl=1;" vertex="1" parent="STwrOhRklooQAh6NSAL1-0">
          <mxGeometry x="15.5" y="52" width="104.5" height="62" as="geometry" />
        </mxCell>
        <mxCell id="PTWqVlbE14Y938z7VgFS-11" value="手术知情同意书" style="shape=document;whiteSpace=wrap;html=1;boundedLbl=1;" vertex="1" parent="STwrOhRklooQAh6NSAL1-0">
          <mxGeometry x="120" y="52" width="104.5" height="62" as="geometry" />
        </mxCell>
        <mxCell id="PTWqVlbE14Y938z7VgFS-12" value="医疗材料收费知情同意书" style="shape=document;whiteSpace=wrap;html=1;boundedLbl=1;" vertex="1" parent="STwrOhRklooQAh6NSAL1-0">
          <mxGeometry x="15.5" y="114" width="104.5" height="62" as="geometry" />
        </mxCell>
        <mxCell id="PTWqVlbE14Y938z7VgFS-13" value="手术风险评估表" style="shape=document;whiteSpace=wrap;html=1;boundedLbl=1;" vertex="1" parent="STwrOhRklooQAh6NSAL1-0">
          <mxGeometry x="120" y="176" width="104.5" height="62" as="geometry" />
        </mxCell>
        <mxCell id="PTWqVlbE14Y938z7VgFS-14" value="手术安全核查表" style="shape=document;whiteSpace=wrap;html=1;boundedLbl=1;" vertex="1" parent="STwrOhRklooQAh6NSAL1-0">
          <mxGeometry x="15.5" y="176" width="104.5" height="62" as="geometry" />
        </mxCell>
        <mxCell id="PTWqVlbE14Y938z7VgFS-15" value="授权知情同意书" style="shape=document;whiteSpace=wrap;html=1;boundedLbl=1;fillColor=#fad7ac;strokeColor=#b46504;" vertex="1" parent="STwrOhRklooQAh6NSAL1-0">
          <mxGeometry x="15.5" y="52" width="104.5" height="62" as="geometry" />
        </mxCell>
        <mxCell id="PTWqVlbE14Y938z7VgFS-16" value="手术知情同意书" style="shape=document;whiteSpace=wrap;html=1;boundedLbl=1;fillColor=#fad7ac;strokeColor=#b46504;" vertex="1" parent="STwrOhRklooQAh6NSAL1-0">
          <mxGeometry x="120" y="52" width="104.5" height="62" as="geometry" />
        </mxCell>
        <mxCell id="PTWqVlbE14Y938z7VgFS-17" value="医疗材料收费知情同意书" style="shape=document;whiteSpace=wrap;html=1;boundedLbl=1;fillColor=#fad7ac;strokeColor=#b46504;" vertex="1" parent="STwrOhRklooQAh6NSAL1-0">
          <mxGeometry x="15.5" y="114" width="104.5" height="62" as="geometry" />
        </mxCell>
        <mxCell id="PTWqVlbE14Y938z7VgFS-18" value="手术风险评估表" style="shape=document;whiteSpace=wrap;html=1;boundedLbl=1;fillColor=#fad7ac;strokeColor=#b46504;" vertex="1" parent="STwrOhRklooQAh6NSAL1-0">
          <mxGeometry x="120" y="176" width="104.5" height="62" as="geometry" />
        </mxCell>
        <mxCell id="PTWqVlbE14Y938z7VgFS-19" value="手术安全核查表" style="shape=document;whiteSpace=wrap;html=1;boundedLbl=1;fillColor=#fad7ac;strokeColor=#b46504;" vertex="1" parent="STwrOhRklooQAh6NSAL1-0">
          <mxGeometry x="15.5" y="176" width="104.5" height="62" as="geometry" />
        </mxCell>
        <mxCell id="PTWqVlbE14Y938z7VgFS-20" value="新冠病毒筛查表" style="shape=document;whiteSpace=wrap;html=1;boundedLbl=1;fillColor=#fad7ac;strokeColor=#b46504;" vertex="1" parent="STwrOhRklooQAh6NSAL1-0">
          <mxGeometry x="15.5" y="254" width="104.5" height="62" as="geometry" />
        </mxCell>
        <mxCell id="PTWqVlbE14Y938z7VgFS-21" value="术前小结" style="shape=document;whiteSpace=wrap;html=1;boundedLbl=1;fillColor=#fad7ac;strokeColor=#b46504;" vertex="1" parent="STwrOhRklooQAh6NSAL1-0">
          <mxGeometry x="15.5" y="332" width="104.5" height="62" as="geometry" />
        </mxCell>
        <mxCell id="PTWqVlbE14Y938z7VgFS-27" value="术前文本综合信息表" style="verticalLabelPosition=bottom;html=1;verticalAlign=top;align=center;strokeColor=none;fillColor=#00BEF2;shape=mxgraph.azure.storage;pointerEvents=1;" vertex="1" parent="STwrOhRklooQAh6NSAL1-0">
          <mxGeometry x="280" y="142" width="120" height="84" as="geometry" />
        </mxCell>
        <mxCell id="PTWqVlbE14Y938z7VgFS-28" value="" style="shape=curlyBracket;whiteSpace=wrap;html=1;rounded=1;flipH=1;" vertex="1" parent="STwrOhRklooQAh6NSAL1-0">
          <mxGeometry x="230" y="85" width="20" height="265" as="geometry" />
        </mxCell>
        <mxCell id="PTWqVlbE14Y938z7VgFS-62" value="术前护理宣教" style="" vertex="1" parent="STwrOhRklooQAh6NSAL1-0">
          <mxGeometry x="592.5" y="292" width="110" height="32" as="geometry" />
        </mxCell>
        <mxCell id="STwrOhRklooQAh6NSAL1-17" value="患者术前准备" style="" vertex="1" parent="STwrOhRklooQAh6NSAL1-0">
          <mxGeometry x="592.5" y="370" width="110" height="30" as="geometry" />
        </mxCell>
        <mxCell id="STwrOhRklooQAh6NSAL1-18" value="" style="endArrow=open;strokeColor=#FF0000;endFill=1;rounded=0;exitX=0.485;exitY=0.988;exitDx=0;exitDy=0;exitPerimeter=0;entryX=0.486;entryY=0;entryDx=0;entryDy=0;entryPerimeter=0;" edge="1" parent="STwrOhRklooQAh6NSAL1-0" source="PTWqVlbE14Y938z7VgFS-62" target="STwrOhRklooQAh6NSAL1-17">
          <mxGeometry relative="1" as="geometry">
            <mxPoint x="647" y="332" as="targetPoint" />
          </mxGeometry>
        </mxCell>
        <mxCell id="PTWqVlbE14Y938z7VgFS-54" value="数据中心" style="ellipse;shape=cloud;whiteSpace=wrap;html=1;fontSize=10;fillColor=rgb(255, 255, 255);strokeColor=rgb(0, 0, 0);fontColor=rgb(0, 0, 0);rounded=1;" vertex="1" parent="STwrOhRklooQAh6NSAL1-0">
          <mxGeometry x="760" y="236" width="120" height="80" as="geometry" />
        </mxCell>
        <mxCell id="PTWqVlbE14Y938z7VgFS-46" value="患者术前核心信息图" style="swimlane;fontStyle=0;childLayout=stackLayout;horizontal=1;startSize=30;horizontalStack=0;resizeParent=1;resizeParentMax=0;resizeLast=0;collapsible=1;marginBottom=0;fontSize=10;" vertex="1" parent="STwrOhRklooQAh6NSAL1-0">
          <mxGeometry x="980" y="216" width="140" height="120" as="geometry" />
        </mxCell>
        <mxCell id="PTWqVlbE14Y938z7VgFS-47" value="Item 1" style="text;strokeColor=none;fillColor=none;align=left;verticalAlign=middle;spacingLeft=4;spacingRight=4;overflow=hidden;points=[[0,0.5],[1,0.5]];portConstraint=eastwest;rotatable=0;fontSize=10;" vertex="1" parent="PTWqVlbE14Y938z7VgFS-46">
          <mxGeometry y="30" width="140" height="30" as="geometry" />
        </mxCell>
        <mxCell id="PTWqVlbE14Y938z7VgFS-48" value="Item 2" style="text;strokeColor=none;fillColor=none;align=left;verticalAlign=middle;spacingLeft=4;spacingRight=4;overflow=hidden;points=[[0,0.5],[1,0.5]];portConstraint=eastwest;rotatable=0;fontSize=10;" vertex="1" parent="PTWqVlbE14Y938z7VgFS-46">
          <mxGeometry y="60" width="140" height="30" as="geometry" />
        </mxCell>
        <mxCell id="PTWqVlbE14Y938z7VgFS-49" value="每日24点自动创建实时更新" style="text;strokeColor=none;fillColor=none;align=left;verticalAlign=middle;spacingLeft=4;spacingRight=4;overflow=hidden;points=[[0,0.5],[1,0.5]];portConstraint=eastwest;rotatable=0;fontSize=10;" vertex="1" parent="PTWqVlbE14Y938z7VgFS-46">
          <mxGeometry y="90" width="140" height="30" as="geometry" />
        </mxCell>
        <mxCell id="PTWqVlbE14Y938z7VgFS-56" value="" style="endArrow=classic;html=1;rounded=0;fontSize=10;entryX=0;entryY=0.033;entryDx=0;entryDy=0;entryPerimeter=0;exitX=0.875;exitY=0.5;exitDx=0;exitDy=0;exitPerimeter=0;" edge="1" parent="STwrOhRklooQAh6NSAL1-0" source="PTWqVlbE14Y938z7VgFS-54" target="PTWqVlbE14Y938z7VgFS-48">
          <mxGeometry width="50" height="50" relative="1" as="geometry">
            <mxPoint x="800" y="342" as="sourcePoint" />
            <mxPoint x="850" y="292" as="targetPoint" />
          </mxGeometry>
        </mxCell>
        <mxCell id="STwrOhRklooQAh6NSAL1-11" value="Process" style="swimlane;whiteSpace=wrap" vertex="1" parent="Koh-GuARSo2pHLwbyBPv-1">
          <mxGeometry x="444.5" y="128" width="485.5" height="862" as="geometry">
            <mxRectangle x="444.5" y="128" width="80" height="23" as="alternateBounds" />
          </mxGeometry>
        </mxCell>
        <mxCell id="STwrOhRklooQAh6NSAL1-12" value="" style="ellipse;shape=startState;fillColor=#000000;strokeColor=#ff0000;" vertex="1" parent="STwrOhRklooQAh6NSAL1-11">
          <mxGeometry x="208" y="40" width="30" height="30" as="geometry" />
        </mxCell>
        <mxCell id="STwrOhRklooQAh6NSAL1-13" value="" style="edgeStyle=elbowEdgeStyle;elbow=horizontal;verticalAlign=bottom;endArrow=open;endSize=8;strokeColor=#FF0000;endFill=1;rounded=0" edge="1" parent="STwrOhRklooQAh6NSAL1-11" source="STwrOhRklooQAh6NSAL1-12" target="STwrOhRklooQAh6NSAL1-14">
          <mxGeometry x="188" y="20" as="geometry">
            <mxPoint x="203" y="90" as="targetPoint" />
          </mxGeometry>
        </mxCell>
        <mxCell id="STwrOhRklooQAh6NSAL1-14" value="医嘱下达明天手术" style="" vertex="1" parent="STwrOhRklooQAh6NSAL1-11">
          <mxGeometry x="168" y="92" width="110" height="38" as="geometry" />
        </mxCell>
        <mxCell id="STwrOhRklooQAh6NSAL1-15" value="病房患者信息核对" style="" vertex="1" parent="STwrOhRklooQAh6NSAL1-11">
          <mxGeometry x="168" y="220" width="110" height="50" as="geometry" />
        </mxCell>
        <mxCell id="STwrOhRklooQAh6NSAL1-16" value="" style="endArrow=open;strokeColor=#FF0000;endFill=1;rounded=0;exitX=0.5;exitY=1;exitDx=0;exitDy=0;entryX=0.504;entryY=0.014;entryDx=0;entryDy=0;entryPerimeter=0;" edge="1" parent="STwrOhRklooQAh6NSAL1-11" source="PTWqVlbE14Y938z7VgFS-39" target="STwrOhRklooQAh6NSAL1-15">
          <mxGeometry relative="1" as="geometry" />
        </mxCell>
        <mxCell id="PTWqVlbE14Y938z7VgFS-30" value="缺项" style="rhombus;fillColor=#ffffc0;strokeColor=#ff0000;" vertex="1" parent="STwrOhRklooQAh6NSAL1-11">
          <mxGeometry x="55.5" y="225" width="85.5" height="40" as="geometry" />
        </mxCell>
        <mxCell id="PTWqVlbE14Y938z7VgFS-31" value="yes" style="edgeStyle=elbowEdgeStyle;elbow=horizontal;align=left;verticalAlign=bottom;endArrow=open;endSize=8;strokeColor=#FF0000;exitX=0.5;exitY=0;endFill=1;rounded=0;entryX=0.504;entryY=0.991;entryDx=0;entryDy=0;entryPerimeter=0;" edge="1" parent="STwrOhRklooQAh6NSAL1-11" source="PTWqVlbE14Y938z7VgFS-30" target="PTWqVlbE14Y938z7VgFS-42">
          <mxGeometry x="-1" relative="1" as="geometry">
            <mxPoint x="98.5" y="182" as="targetPoint" />
            <Array as="points">
              <mxPoint x="98" y="192" />
            </Array>
          </mxGeometry>
        </mxCell>
        <mxCell id="PTWqVlbE14Y938z7VgFS-33" value="" style="endArrow=open;strokeColor=#FF0000;endFill=1;rounded=0;exitX=-0.017;exitY=0.524;exitDx=0;exitDy=0;exitPerimeter=0;" edge="1" parent="STwrOhRklooQAh6NSAL1-11" target="PTWqVlbE14Y938z7VgFS-30" source="STwrOhRklooQAh6NSAL1-15">
          <mxGeometry relative="1" as="geometry">
            <mxPoint x="165.5" y="245" as="sourcePoint" />
          </mxGeometry>
        </mxCell>
        <mxCell id="PTWqVlbE14Y938z7VgFS-39" value="医生术前谈话+标记" style="" vertex="1" parent="STwrOhRklooQAh6NSAL1-11">
          <mxGeometry x="168" y="152" width="110" height="38" as="geometry" />
        </mxCell>
        <mxCell id="PTWqVlbE14Y938z7VgFS-41" value="" style="endArrow=open;strokeColor=#FF0000;endFill=1;rounded=0;exitX=0.497;exitY=1.027;exitDx=0;exitDy=0;exitPerimeter=0;entryX=0.497;entryY=0.008;entryDx=0;entryDy=0;entryPerimeter=0;" edge="1" parent="STwrOhRklooQAh6NSAL1-11" source="STwrOhRklooQAh6NSAL1-14" target="PTWqVlbE14Y938z7VgFS-39">
          <mxGeometry relative="1" as="geometry">
            <mxPoint x="178" y="255" as="sourcePoint" />
            <mxPoint x="151" y="255" as="targetPoint" />
          </mxGeometry>
        </mxCell>
        <mxCell id="PTWqVlbE14Y938z7VgFS-42" value="&lt;font style=&quot;font-size: 10px&quot;&gt;系统提示医生&lt;/font&gt;" style="whiteSpace=wrap;html=1;fillColor=#ffffc0;strokeColor=#ff0000;fontColor=rgb(0, 0, 0);fontSize=7;" vertex="1" parent="STwrOhRklooQAh6NSAL1-11">
          <mxGeometry x="60.5" y="152.5" width="75.5" height="37.5" as="geometry" />
        </mxCell>
        <mxCell id="PTWqVlbE14Y938z7VgFS-45" value="" style="endArrow=open;strokeColor=#FF0000;endFill=1;rounded=0;exitX=1.007;exitY=0.531;exitDx=0;exitDy=0;exitPerimeter=0;entryX=-0.011;entryY=0.555;entryDx=0;entryDy=0;entryPerimeter=0;" edge="1" parent="STwrOhRklooQAh6NSAL1-11" source="PTWqVlbE14Y938z7VgFS-42" target="PTWqVlbE14Y938z7VgFS-39">
          <mxGeometry relative="1" as="geometry">
            <mxPoint x="287.8900000000001" y="254.1500000000001" as="sourcePoint" />
            <mxPoint x="165.5" y="172" as="targetPoint" />
          </mxGeometry>
        </mxCell>
        <mxCell id="PTWqVlbE14Y938z7VgFS-53" value="" style="shape=curlyBracket;whiteSpace=wrap;html=1;rounded=1;flipH=1;fontSize=10;" vertex="1" parent="STwrOhRklooQAh6NSAL1-11">
          <mxGeometry x="285.5" y="242" width="20" height="68" as="geometry" />
        </mxCell>
        <mxCell id="STwrOhRklooQAh6NSAL1-30" value="outPut" style="swimlane;whiteSpace=wrap" vertex="1" parent="Koh-GuARSo2pHLwbyBPv-1">
          <mxGeometry x="930" y="128" width="280" height="862" as="geometry" />
        </mxCell>
        <mxCell id="STwrOhRklooQAh6NSAL1-37" value="手术流程管理" style="rounded=1;whiteSpace=wrap;html=1;fillColor=#fff2cc;strokeColor=#d6b656;fontColor=#7A5E87;fontStyle=1;fontSize=16;" vertex="1" parent="Koh-GuARSo2pHLwbyBPv-1">
          <mxGeometry x="30" y="20" width="120" height="60" as="geometry" />
        </mxCell>
        <mxCell id="PTWqVlbE14Y938z7VgFS-29" value="" style="endArrow=open;strokeColor=#FF0000;endFill=1;rounded=0;exitX=1;exitY=0.5;exitDx=0;exitDy=0;exitPerimeter=0;" edge="1" parent="Koh-GuARSo2pHLwbyBPv-1" source="PTWqVlbE14Y938z7VgFS-27">
          <mxGeometry relative="1" as="geometry">
            <mxPoint x="419.5" y="311.48249999999996" as="sourcePoint" />
            <mxPoint x="640" y="350" as="targetPoint" />
            <Array as="points">
              <mxPoint x="480" y="312" />
              <mxPoint x="480" y="330" />
              <mxPoint x="640" y="330" />
            </Array>
          </mxGeometry>
        </mxCell>
        <mxCell id="STwrOhRklooQAh6NSAL1-19" value="缺项" style="rhombus;fillColor=#ffffc0;strokeColor=#ff0000;" vertex="1" parent="Koh-GuARSo2pHLwbyBPv-1">
          <mxGeometry x="720" y="1132.5" width="80" height="40" as="geometry" />
        </mxCell>
        <mxCell id="STwrOhRklooQAh6NSAL1-20" value="yes" style="edgeStyle=elbowEdgeStyle;elbow=horizontal;align=left;verticalAlign=bottom;endArrow=open;endSize=8;strokeColor=#FF0000;exitX=0.5;exitY=0;endFill=1;rounded=0;entryX=0.75;entryY=0.5;entryPerimeter=0" edge="1" parent="Koh-GuARSo2pHLwbyBPv-1" source="STwrOhRklooQAh6NSAL1-19" target="STwrOhRklooQAh6NSAL1-23">
          <mxGeometry x="-1" relative="1" as="geometry">
            <mxPoint x="730" y="1057.5" as="targetPoint" />
            <Array as="points">
              <mxPoint x="760" y="1087.5" />
            </Array>
          </mxGeometry>
        </mxCell>
        <mxCell id="STwrOhRklooQAh6NSAL1-21" value="no" style="edgeStyle=elbowEdgeStyle;elbow=horizontal;align=left;verticalAlign=top;endArrow=open;endSize=8;strokeColor=#FF0000;endFill=1;rounded=0" edge="1" parent="Koh-GuARSo2pHLwbyBPv-1" source="STwrOhRklooQAh6NSAL1-19" target="STwrOhRklooQAh6NSAL1-25">
          <mxGeometry x="-1" relative="1" as="geometry">
            <mxPoint x="760" y="1212.5" as="targetPoint" />
          </mxGeometry>
        </mxCell>
        <mxCell id="STwrOhRklooQAh6NSAL1-23" value="" style="shape=line;strokeWidth=6;strokeColor=#ff0000;rotation=90" vertex="1" parent="Koh-GuARSo2pHLwbyBPv-1">
          <mxGeometry x="700" y="1035" width="50" height="15" as="geometry" />
        </mxCell>
        <mxCell id="STwrOhRklooQAh6NSAL1-25" value="dispatch&#xa;command&#xa;worker thread" style="" vertex="1" parent="Koh-GuARSo2pHLwbyBPv-1">
          <mxGeometry x="710" y="1232.5" width="110" height="50" as="geometry" />
        </mxCell>
        <mxCell id="STwrOhRklooQAh6NSAL1-28" value="" style="whiteSpace=wrap;strokeColor=#FF0000;fillColor=#FF0000" vertex="1" parent="Koh-GuARSo2pHLwbyBPv-1">
          <mxGeometry x="815" y="1302.5" width="5" height="45" as="geometry" />
        </mxCell>
        <mxCell id="STwrOhRklooQAh6NSAL1-29" value="" style="edgeStyle=elbowEdgeStyle;elbow=horizontal;entryX=0;entryY=0.5;strokeColor=#FF0000;endArrow=open;endFill=1;rounded=0" edge="1" parent="Koh-GuARSo2pHLwbyBPv-1" source="STwrOhRklooQAh6NSAL1-25" target="STwrOhRklooQAh6NSAL1-28">
          <mxGeometry width="100" height="100" relative="1" as="geometry">
            <mxPoint x="630" y="1387.5" as="sourcePoint" />
            <mxPoint x="730" y="1287.5" as="targetPoint" />
            <Array as="points">
              <mxPoint x="765" y="1307.5" />
            </Array>
          </mxGeometry>
        </mxCell>
        <mxCell id="STwrOhRklooQAh6NSAL1-32" value="" style="edgeStyle=elbowEdgeStyle;elbow=horizontal;strokeColor=#FF0000;endArrow=open;endFill=1;rounded=0;entryX=0.25;entryY=0.5;entryPerimeter=0" edge="1" parent="Koh-GuARSo2pHLwbyBPv-1" target="STwrOhRklooQAh6NSAL1-23">
          <mxGeometry width="100" height="100" relative="1" as="geometry">
            <mxPoint x="877.5" y="1317.5" as="sourcePoint" />
            <mxPoint x="787.5" y="1027.5" as="targetPoint" />
            <Array as="points">
              <mxPoint x="897.5" y="1042.5" />
            </Array>
          </mxGeometry>
        </mxCell>
        <mxCell id="PTWqVlbE14Y938z7VgFS-58" value="" style="rounded=1;whiteSpace=wrap;html=1;fontSize=10;fillColor=#b1ddf0;strokeColor=#10739e;opacity=50;" vertex="1" parent="Koh-GuARSo2pHLwbyBPv-1">
          <mxGeometry x="22" y="543" width="1190" height="388" as="geometry" />
        </mxCell>
        <mxCell id="STwrOhRklooQAh6NSAL1-26" value="critical&#xa;section" style="shape=note;whiteSpace=wrap;size=17" vertex="1" parent="Koh-GuARSo2pHLwbyBPv-1">
          <mxGeometry x="1000" y="1070" width="100" height="50" as="geometry" />
        </mxCell>
        <mxCell id="STwrOhRklooQAh6NSAL1-31" value="process&#xa;command" style="" vertex="1" parent="Koh-GuARSo2pHLwbyBPv-1">
          <mxGeometry x="1283" y="980" width="110" height="50" as="geometry" />
        </mxCell>
        <mxCell id="STwrOhRklooQAh6NSAL1-33" value="" style="edgeStyle=none;strokeColor=#FF0000;endArrow=open;endFill=1;rounded=0" edge="1" parent="Koh-GuARSo2pHLwbyBPv-1" target="STwrOhRklooQAh6NSAL1-31">
          <mxGeometry width="100" height="100" relative="1" as="geometry">
            <mxPoint x="1163" y="1004.5" as="sourcePoint" />
            <mxPoint x="1283" y="1004.5" as="targetPoint" />
          </mxGeometry>
        </mxCell>
        <mxCell id="STwrOhRklooQAh6NSAL1-34" value="" style="ellipse;shape=endState;fillColor=#000000;strokeColor=#ff0000" vertex="1" parent="Koh-GuARSo2pHLwbyBPv-1">
          <mxGeometry x="1323" y="1075" width="30" height="30" as="geometry" />
        </mxCell>
        <mxCell id="STwrOhRklooQAh6NSAL1-35" value="" style="endArrow=open;strokeColor=#FF0000;endFill=1;rounded=0" edge="1" parent="Koh-GuARSo2pHLwbyBPv-1" source="STwrOhRklooQAh6NSAL1-31" target="STwrOhRklooQAh6NSAL1-34">
          <mxGeometry relative="1" as="geometry" />
        </mxCell>
        <mxCell id="PTWqVlbE14Y938z7VgFS-59" value="主刀医生联系护士站&#xa;送患者" style="" vertex="1" parent="Koh-GuARSo2pHLwbyBPv-1">
          <mxGeometry x="612.5" y="559" width="110" height="50" as="geometry" />
        </mxCell>
        <mxCell id="PTWqVlbE14Y938z7VgFS-60" value="" style="endArrow=open;strokeColor=#FF0000;endFill=1;rounded=0;exitX=0.487;exitY=1.072;exitDx=0;exitDy=0;exitPerimeter=0;entryX=0.494;entryY=0.032;entryDx=0;entryDy=0;entryPerimeter=0;" edge="1" parent="Koh-GuARSo2pHLwbyBPv-1" source="STwrOhRklooQAh6NSAL1-17" target="PTWqVlbE14Y938z7VgFS-59">
          <mxGeometry relative="1" as="geometry">
            <mxPoint x="665.6099999999999" y="519.9999999999999" as="sourcePoint" />
            <mxPoint x="664.4000000000001" y="574.65" as="targetPoint" />
          </mxGeometry>
        </mxCell>
        <mxCell id="PTWqVlbE14Y938z7VgFS-61" value="主刀医生联系送患者" style="" vertex="1" parent="Koh-GuARSo2pHLwbyBPv-1">
          <mxGeometry x="612.5" y="640" width="110" height="50" as="geometry" />
        </mxCell>
        <mxCell id="PTWqVlbE14Y938z7VgFS-32" value="no" style="edgeStyle=elbowEdgeStyle;elbow=horizontal;align=left;verticalAlign=top;endArrow=open;endSize=8;strokeColor=#FF0000;endFill=1;rounded=0;entryX=0.008;entryY=0.507;entryDx=0;entryDy=0;entryPerimeter=0;" edge="1" parent="Koh-GuARSo2pHLwbyBPv-1" source="PTWqVlbE14Y938z7VgFS-30" target="STwrOhRklooQAh6NSAL1-17">
          <mxGeometry x="-1" relative="1" as="geometry">
            <mxPoint x="585.8571428571429" y="467.5" as="targetPoint" />
            <Array as="points">
              <mxPoint x="502.5" y="420" />
            </Array>
          </mxGeometry>
        </mxCell>
        <mxCell id="PTWqVlbE14Y938z7VgFS-63" value="" style="endArrow=open;strokeColor=#FF0000;endFill=1;rounded=0;exitX=0.494;exitY=1.02;exitDx=0;exitDy=0;exitPerimeter=0;entryX=0.494;entryY=0.004;entryDx=0;entryDy=0;entryPerimeter=0;" edge="1" parent="Koh-GuARSo2pHLwbyBPv-1" source="STwrOhRklooQAh6NSAL1-15" target="PTWqVlbE14Y938z7VgFS-62">
          <mxGeometry relative="1" as="geometry">
            <mxPoint x="675.8499999999999" y="453.616" as="sourcePoint" />
            <mxPoint x="675.96" y="488" as="targetPoint" />
          </mxGeometry>
        </mxCell>
        <mxCell id="PTWqVlbE14Y938z7VgFS-55" value="" style="edgeStyle=orthogonalEdgeStyle;rounded=0;orthogonalLoop=1;jettySize=auto;html=1;fontSize=10;" edge="1" parent="Koh-GuARSo2pHLwbyBPv-1" source="PTWqVlbE14Y938z7VgFS-53" target="PTWqVlbE14Y938z7VgFS-54">
          <mxGeometry relative="1" as="geometry" />
        </mxCell>
      </root>
    </mxGraphModel>
  </diagram>
</mxfile>
